#!OML:ASF H:\MichaelJackson\Top Level 1\Subject 1\Session 1\male.ASF
:FULLY-SPECIFIED
:DEGREES
778
root -8.6339 16.7199 6.43628 -171.603 -3.70183 -178.435
lowerback 5.2035 3.55204 0.718633
upperback 6.07345 4.10295 3.66851
thorax 3.14478 1.75429 3.2721
lowerneck -12.2213 -3.71419 -1.50182
upperneck 27.6508 -6.53159 -0.890026
head 10.9464 -3.80256 -1.015
rclavicle 3.97569e-015 2.38542e-014
rhumerus 14.4404 10.2641 -63.3767
rradius 60.5706
rwrist 35.7035
rhand -52.0132 -29.8405
rfingers 7.12502
rthumb -24.5201 -58.2906
lclavicle 3.97569e-015 2.38542e-014
lhumerus -79.1844 -18.4778 111.73
lradius 97.9525
lwrist 25.9087
lhand -32.0308 26.277
lfingers 7.12502
lthumb -5.27849 56.1913
rfemur -35.3866 1.10648 21.7695
rtibia 43.5626
rfoot -12.8438 -10.7163
rtoes 8.97219
lfemur -32.5874 0.388132 -14.5944
ltibia 68.3575
lfoot -10.2031 -14.2338
ltoes 6.77521
779
root -8.65507 16.7184 6.52795 -171.462 -3.59185 -178.653
lowerback 5.09776 3.57922 0.504173
upperback 6.01429 4.14512 3.69384
thorax 3.12198 1.77264 3.42042
lowerneck -12.2111 -3.70397 -1.49767
upperneck 27.649 -6.48221 -1.02155
head 10.9381 -3.79671 -1.056
rclavicle -2.18663e-014 -2.54444e-014
rhumerus 14.493 9.03974 -65.1431
rradius 58.8214
rwrist 35.6836
rhand -52.2572 -30.6768
rfingers 7.12502
rthumb -24.754 -59.095
lclavicle -2.18663e-014 -2.54444e-014
lhumerus -79.504 -18.8569 112.092
lradius 98.2978
lwrist 25.7043
lhand -31.9188 27.5092
lfingers 7.12502
lthumb -5.17037 57.4261
rfemur -35.9259 1.18142 21.384
rtibia 43.6058
rfoot -12.4789 -10.6471
rtoes 8.64395
lfemur -31.4172 0.662212 -15.0709
ltibia 66.3443
lfoot -12.8908 -13.304
ltoes 4.32371
780
root -8.67874 16.7201 6.61426 -171.323 -3.52901 -178.939
lowerback 4.88672 3.60446 0.291786
upperback 5.96774 4.18894 3.66118
thorax 3.17507 1.79464 3.51471
lowerneck -12.148 -3.6844 -1.40378
upperneck 27.6857 -6.44531 -1.18124
head 10.9295 -3.79415 -1.12344
rclavicle -1.07344e-014 -5.725e-014
rhumerus 14.3262 7.89063 -66.7907
rradius 57.2869
rwrist 35.5334
rhand -51.8946 -31.8265
rfingers 7.12502
rthumb -24.4065 -60.292
lclavicle -1.07344e-014 -5.725e-014
lhumerus -79.7724 -19.407 112.528
lradius 98.4874
lwrist 25.2607
lhand -31.7154 28.5328
lfingers 7.12502
lthumb -4.97392 58.4545
rfemur -36.4255 1.06151 20.9425
rtibia 43.6423
rfoot -12.1193 -10.439
rtoes 8.3649
lfemur -30.2369 0.9678 -15.6796
ltibia 64.3794
lfoot -15.5561 -12.1616
ltoes 1.66379
781
root -8.70139 16.7195 6.70867 -171.211 -3.34559 -179.188
lowerback 4.85366 3.64212 0.0602474
upperback 5.91661 4.24701 3.6468
thorax 3.12035 1.82141 3.62708
lowerneck -12.1937 -3.62555 -1.37454
upperneck 27.7699 -6.35139 -1.27794
head 10.9654 -3.76309 -1.15545
rclavicle 1.15295e-014 -1.90833e-014
rhumerus 14.2697 7.182 -68.0966
rradius 55.8016
rwrist 34.9062
rhand -51.1942 -32.6379
rfingers 7.12502
rthumb -23.7349 -61.1922
lclavicle 1.15295e-014 -1.90833e-014
lhumerus -79.8631 -19.9128 112.911
lradius 98.6203
lwrist 24.9829
lhand -31.4966 28.2394
lfingers 7.12502
lthumb -4.76268 58.1658
rfemur -36.942 1.189 20.5088
rtibia 43.6455
rfoot -11.6653 -10.3607
rtoes 7.88511
lfemur -29.2428 1.48235 -16.3005
ltibia 62.5126
lfoot -17.8777 -10.8263
ltoes -0.499352
782
root -8.72639 16.7187 6.80336 -171.029 -3.20903 -179.478
lowerback 4.7201 3.62152 -0.185438
upperback 5.87702 4.22755 3.61233
thorax 3.13895 1.8093 3.73553
lowerneck -12.3228 -3.55599 -1.40842
upperneck 27.8652 -6.23914 -1.30889
head 11.0272 -3.71997 -1.15397
rclavicle 1.98785e-015 1.11319e-014
rhumerus 14.1742 6.58073 -69.4378
rradius 54.44
rwrist 34.1935
rhand -50.2205 -32.8821
rfingers 7.12502
rthumb -22.8007 -61.5546
lclavicle 1.98785e-015 1.11319e-014
lhumerus -79.8194 -20.3716 113.237
lradius 98.8374
lwrist 24.6202
lhand -31.1731 29.4221
lfingers 7.12502
lthumb -4.45032 59.3554
rfemur -37.527 1.24071 20.0275
rtibia 43.6554
rfoot -11.1994 -10.2607
rtoes 7.39501
lfemur -28.4766 1.9923 -17.0159
ltibia 60.766
lfoot -19.9657 -9.56676
ltoes -1.79416
783
root -8.75175 16.7221 6.89768 -170.797 -3.09528 -179.747
lowerback 4.5456 3.59073 -0.313328
upperback 5.81532 4.20471 3.50769
thorax 3.17144 1.80375 3.70741
lowerneck -12.3514 -3.48434 -1.35413
upperneck 27.8934 -6.15196 -1.30408
head 11.0417 -3.67514 -1.15203
rclavicle 1.43125e-014 9.54166e-015
rhumerus 13.9807 6.12226 -70.5768
rradius 53.2027
rwrist 33.5833
rhand -49.1145 -33.2505
rfingers 7.12502
rthumb -21.739 -62.0498
lclavicle 1.43125e-014 9.54166e-015
lhumerus -79.7151 -20.9604 113.491
lradius 99.0674
lwrist 24.3384
lhand -30.8927 30.5803
lfingers 7.12502
lthumb -4.17951 60.519
rfemur -38.1681 1.18772 19.6012
rtibia 43.6601
rfoot -10.6744 -10.0942
rtoes 6.80657
lfemur -27.9314 2.57596 -17.7627
ltibia 59.1633
lfoot -21.8411 -8.05943
ltoes -3.31931
784
root -8.77485 16.7257 6.99503 -170.609 -2.96369 -180.076
lowerback 4.40619 3.55564 -0.511178
upperback 5.79364 4.17143 3.38168
thorax 3.22341 1.7886 3.69587
lowerneck -12.4894 -3.40465 -1.35564
upperneck 27.9793 -6.04745 -1.26775
head 11.1033 -3.62275 -1.13236
rclavicle 3.49861e-014 4.6118e-014
rhumerus 13.6823 5.58719 -71.7887
rradius 52.1642
rwrist 33.0095
rhand -47.9959 -32.93
rfingers 7.12502
rthumb -20.6644 -61.8499
lclavicle 3.49861e-014 4.6118e-014
lhumerus -79.5166 -21.6189 113.716
lradius 99.2893
lwrist 23.9467
lhand -31.0191 31.0957
lfingers 7.12502
lthumb -4.30161 61.032
rfemur -38.7918 1.16818 19.1138
rtibia 43.6802
rfoot -10.0588 -9.99882
rtoes 5.72397
lfemur -27.4661 3.17979 -18.5672
ltibia 57.72
lfoot -23.3033 -6.46961
ltoes -4.55515
785
root -8.79751 16.7285 7.09327 -170.431 -2.88467 -180.411
lowerback 4.35168 3.48291 -0.702822
upperback 5.72228 4.0953 3.22622
thorax 3.18156 1.7564 3.6441
lowerneck -12.4614 -3.28558 -1.17428
upperneck 27.9491 -5.90248 -1.31232
head 11.0782 -3.54444 -1.15809
rclavicle -5.725e-014 -6.04305e-014
rhumerus 13.1957 5.25426 -72.857
rradius 51.0888
rwrist 32.8575
rhand -46.8418 -32.1658
rfingers 7.12502
rthumb -19.5552 -61.2024
lclavicle -5.725e-014 -6.04305e-014
lhumerus -79.2778 -22.3153 113.878
lradius 99.4685
lwrist 23.6051
lhand -31.1313 32.2129
lfingers 7.12502
lthumb -4.40991 62.147
rfemur -39.4177 1.08391 18.6247
rtibia 43.7322
rfoot -9.53619 -9.85025
rtoes 5.08676
lfemur -27.0895 3.74382 -19.3574
ltibia 56.4013
lfoot -24.4167 -5.10049
ltoes -4.88585
